<?xml version="1.0" standalone="no"?>
<!DOCTYPE svg PUBLIC "-//W3C//DTD SVG 20010904//EN"
 "http://www.w3.org/TR/2001/REC-SVG-20010904/DTD/svg10.dtd">
<svg version="1.0" xmlns="http://www.w3.org/2000/svg"
 width="700.000000pt" height="700.000000pt" viewBox="0 0 700.000000 700.000000"
 preserveAspectRatio="xMidYMid meet">
<metadata>
Created by potrace 1.11, written by Peter Selinger 2001-2013
</metadata>
<g transform="translate(0.000000,700.000000) scale(0.100000,-0.100000)"
fill="#000000" stroke="none">
<path d="M3307 6704 c-1 -1 -38 -5 -82 -8 -44 -4 -91 -8 -105 -10 -14 -3 -47
-7 -75 -11 -27 -3 -84 -12 -125 -20 -41 -8 -86 -17 -100 -19 -229 -44 -553
-161 -806 -294 -458 -238 -878 -612 -1165 -1037 -92 -136 -140 -216 -215 -365
-115 -227 -227 -540 -269 -755 -19 -97 -36 -196 -41 -235 -3 -25 -7 -58 -9
-75 -26 -199 -26 -622 -1 -752 3 -12 7 -47 11 -79 7 -63 38 -227 61 -319 240
-960 913 -1758 1819 -2160 155 -68 372 -144 485 -170 8 -1 33 -8 55 -13 58
-15 193 -42 240 -48 22 -3 63 -9 90 -14 158 -30 595 -33 805 -5 14 1 49 6 79
10 30 4 63 9 75 11 12 2 37 7 56 10 91 16 257 59 375 95 386 121 738 312 1075
583 109 87 353 334 451 456 367 454 607 1004 684 1565 3 22 7 49 10 60 25 122
25 694 0 785 -3 8 -7 37 -9 64 -3 26 -7 56 -10 65 -3 9 -7 34 -11 56 -10 73
-15 93 -45 212 -120 468 -345 908 -655 1279 -50 60 -291 304 -355 360 -356
310 -805 548 -1270 673 -100 27 -244 58 -305 67 -27 3 -57 8 -67 9 -26 5 -97
14 -173 21 -65 7 -472 13 -478 8z m13 -593 c0 -3 -27 -53 -61 -111 -34 -58
-71 -123 -84 -145 -12 -22 -72 -125 -132 -230 -61 -104 -171 -296 -245 -425
-75 -129 -169 -291 -208 -360 -87 -149 -264 -457 -363 -628 -56 -97 -73 -120
-82 -110 -17 18 -627 1078 -632 1098 -5 20 176 206 303 311 252 209 534 370
820 468 94 32 296 87 354 96 19 3 46 7 60 10 58 11 88 15 145 21 33 4 61 7 62
8 6 5 63 2 63 -3z m820 -66 c197 -50 327 -98 527 -196 158 -77 376 -219 510
-331 168 -140 359 -347 473 -512 31 -46 31 -46 8 -46 -32 -1 -2233 -1 -2285 0
l-43 0 44 73 c24 39 155 266 291 502 347 603 310 546 348 540 18 -3 75 -17
127 -30z m-2538 -2175 c240 -415 499 -864 576 -997 77 -134 137 -244 134 -246
-4 -2 -295 -3 -646 -3 l-639 1 -14 40 c-41 113 -90 317 -108 445 -3 25 -8 56
-10 70 -18 124 -23 352 -11 515 19 271 100 607 195 820 15 33 36 79 46 102 16
37 20 40 30 25 7 -9 208 -357 447 -772z m2406 495 c5 -6 120 -202 256 -437
l247 -428 -23 -39 c-13 -22 -46 -79 -74 -128 -27 -48 -94 -164 -149 -258 -54
-93 -131 -228 -172 -300 -41 -71 -81 -135 -88 -140 -8 -7 -188 -10 -506 -9
-272 1 -497 2 -501 3 -6 1 -39 55 -88 141 -29 52 -147 258 -171 298 -9 15 -69
118 -133 229 l-117 203 74 127 c41 71 96 167 124 214 27 48 53 93 57 100 3 8
14 28 25 44 10 17 62 107 115 200 54 94 104 175 111 180 17 14 1001 14 1013 0z
m1964 6 c3 0 16 -34 28 -73 12 -40 28 -93 35 -118 33 -108 67 -306 81 -475 17
-197 4 -463 -32 -665 -36 -205 -109 -440 -192 -620 l-37 -81 -37 63 c-69 119
-434 753 -593 1028 -87 151 -188 327 -225 390 -37 63 -77 131 -87 150 -11 19
-67 117 -125 217 -58 100 -104 183 -103 185 3 3 1271 2 1287 -1z m-1002 -1666
c57 -99 151 -261 208 -360 58 -99 115 -198 127 -220 12 -22 31 -56 42 -75 94
-160 143 -249 143 -256 0 -14 -170 -187 -265 -270 -81 -72 -204 -165 -285
-218 -25 -16 -58 -38 -75 -50 -54 -37 -308 -161 -405 -199 -243 -93 -477 -148
-733 -172 -42 -4 -48 -2 -43 12 4 9 99 177 213 372 113 196 217 376 231 401
14 25 106 184 205 355 98 170 193 334 209 365 17 30 39 67 49 82 11 14 19 29
19 32 0 4 11 25 26 47 14 22 33 55 43 72 137 244 165 287 176 275 7 -7 58 -94
115 -193z m-1314 -668 c3 -3 -9 -31 -26 -62 -29 -52 -178 -310 -199 -345 -5
-8 -74 -127 -153 -263 -78 -136 -148 -255 -153 -265 -6 -9 -29 -52 -53 -94
-24 -43 -47 -80 -52 -83 -18 -11 -401 91 -435 115 -5 4 -28 13 -50 20 -65 20
-314 144 -405 201 -290 182 -523 395 -724 659 -64 85 -83 116 -72 120 20 7
2316 4 2322 -3z"/>
</g>
</svg>
